<?xml version="1.0" standalone="no"?>
<!DOCTYPE svg PUBLIC "-//W3C//DTD SVG 20010904//EN"
 "http://www.w3.org/TR/2001/REC-SVG-20010904/DTD/svg10.dtd">
<svg version="1.0" xmlns="http://www.w3.org/2000/svg"
 width="512.000000pt" height="512.000000pt" viewBox="0 0 512.000000 512.000000"
 preserveAspectRatio="xMidYMid meet">

<g transform="translate(0.000000,512.000000) scale(0.100000,-0.100000)"
fill="#000000" stroke="none">
<path d="M1760 4784 c-167 -13 -316 -54 -408 -113 -57 -37 -66 -40 -129 -39
-96 2 -160 -22 -222 -83 -144 -141 -173 -395 -70 -607 39 -80 97 -142 132
-142 40 0 194 109 276 195 l72 76 60 -54 c134 -122 302 -174 674 -207 154 -15
225 -8 282 26 49 28 70 64 104 174 20 63 24 97 24 215 l0 141 -38 76 c-87 177
-306 311 -544 332 -115 11 -166 13 -213 10z"/>
<path d="M3490 4310 c-19 -19 -20 -33 -20 -279 l0 -260 26 -20 c62 -49 124 0
124 95 l0 34 75 0 75 0 0 -50 c0 -41 5 -56 25 -75 29 -30 64 -32 96 -6 24 19
24 20 27 273 3 246 2 255 -18 281 l-21 27 -185 0 c-171 0 -185 -1 -204 -20z
m280 -205 l0 -75 -75 0 -75 0 0 75 0 75 75 0 75 0 0 -75z"/>
<path d="M4091 4304 c-20 -25 -21 -39 -21 -276 l0 -249 25 -24 c23 -24 30 -25
147 -25 98 0 131 4 163 19 101 47 141 147 97 245 -17 38 -17 41 0 75 31 60 17
152 -30 204 -42 46 -84 57 -226 57 -133 0 -135 0 -155 -26z m274 -159 l0 -30
-72 -3 -73 -3 0 36 0 36 73 -3 72 -3 0 -30z m-7 -197 c17 -17 15 -55 -4 -62
-9 -3 -42 -6 -75 -6 l-59 0 0 40 0 40 63 0 c36 0 68 -5 75 -12z"/>
<path d="M3496 3559 l-26 -20 0 -260 c0 -246 1 -260 20 -279 19 -19 33 -20
204 -20 l185 0 20 26 c26 34 26 54 0 88 -20 26 -22 26 -150 26 l-129 0 0 155
0 155 121 0 c66 0 129 5 140 11 48 25 44 105 -7 128 -15 7 -88 11 -188 11
-150 0 -165 -2 -190 -21z"/>
<path d="M4113 3570 c-40 -16 -43 -39 -43 -293 0 -317 -12 -297 176 -297 174
0 220 20 259 113 20 49 22 322 1 370 -17 43 -76 93 -123 106 -46 13 -239 13
-270 1z m245 -152 c8 -8 12 -55 12 -145 0 -153 0 -153 -94 -153 l-56 0 0 155
0 155 63 0 c36 0 68 -5 75 -12z"/>
<path d="M1760 2720 c-19 -16 -30 -30 -25 -30 6 0 -8 -9 -30 -19 -47 -22 -259
-234 -274 -273 -8 -22 -3 -48 29 -142 l39 -116 -75 -601 c-42 -331 -73 -612
-70 -625 4 -16 55 -61 151 -132 l144 -107 3 -170 3 -170 75 0 75 0 3 170 3
170 140 102 c77 57 144 114 151 127 8 20 -5 149 -65 630 l-76 606 39 116 c46
136 44 148 -33 223 l-46 44 20 25 c21 28 24 54 9 83 -13 24 -127 119 -143 119
-7 0 -28 -14 -47 -30z"/>
<path d="M810 2660 c-129 -37 -242 -71 -251 -74 -22 -9 -148 -152 -127 -144 9
4 35 12 58 18 46 12 35 17 205 -92 101 -65 138 -73 173 -35 45 48 26 91 -64
148 -36 23 -62 45 -57 49 4 4 67 23 138 43 92 26 151 37 199 37 37 0 66 4 64
9 -3 9 -97 112 -101 110 -1 0 -108 -31 -237 -69z"/>
<path d="M2336 2654 c-38 -41 -68 -76 -65 -78 2 -2 78 -25 169 -50 91 -26 171
-49 178 -51 10 -4 5 -14 -17 -34 -37 -35 -42 -80 -11 -111 31 -31 77 -25 147
19 l61 39 101 -103 c56 -57 101 -107 101 -112 0 -4 7 -46 15 -93 15 -91 49
-391 59 -527 l6 -83 -220 0 -220 0 0 275 0 276 -25 24 c-15 16 -36 25 -55 25
-19 0 -40 -9 -55 -25 l-25 -24 0 -320 c0 -213 4 -328 11 -344 20 -44 42 -47
370 -47 338 0 362 4 375 56 7 28 -2 255 -17 434 -14 173 -60 502 -72 525 -19
36 -231 254 -257 265 -28 11 -478 141 -482 139 -2 -1 -34 -35 -72 -75z"/>
<path d="M3695 2124 c-43 -16 -99 -64 -120 -104 l-13 -25 254 3 254 4 0 -116
0 -116 75 0 75 0 0 105 c0 58 2 105 5 105 17 0 66 -33 91 -63 30 -33 47 -69
58 -119 6 -27 9 -28 71 -28 l64 0 7 36 c18 97 -13 220 -68 270 -63 58 -68 59
-403 61 -253 2 -317 -1 -350 -13z"/>
<path d="M845 2045 l-25 -24 0 -276 0 -275 -300 0 -300 0 0 -49 c0 -38 6 -56
24 -78 l24 -28 326 -3 327 -3 29 30 30 29 0 317 c0 258 -3 321 -15 344 -24 48
-81 56 -120 16z"/>
<path d="M3703 1376 c-49 -16 -87 -44 -120 -88 -44 -60 -57 -58 342 -58 l365
0 0 -104 0 -105 -352 -3 c-324 -3 -356 -5 -388 -22 -108 -59 -151 -130 -158
-261 -8 -144 40 -243 142 -298 41 -22 45 -22 611 -22 637 0 603 -4 678 72 56
55 71 96 75 202 6 148 -29 232 -122 286 -44 26 -44 26 -34 63 6 20 8 72 6 114
-6 97 -39 158 -112 203 l-49 30 -421 2 c-328 2 -430 -1 -463 -11z m828 -213
c35 -37 59 -86 59 -118 0 -24 -2 -25 -70 -25 l-70 0 0 100 0 101 28 -15 c15
-8 39 -27 53 -43z"/>
</g>
</svg>
